<?xml version="1.0" encoding="UTF-8"?>
<svg id="_Слой_2" data-name="Слой 2" xmlns="http://www.w3.org/2000/svg" viewBox="0 0 578.21 201.38">
  <defs>
    <style>
      .cls-1 {
        fill: #44ae51;
      }

      .cls-1, .cls-2 {
        stroke-width: 0px;
      }

      .cls-2 {
        fill: #1d1d1b;
      }
    </style>
  </defs>
  <g id="_Слой_1-2" data-name="Слой 1">
    <g>
      <g>
        <polyline class="cls-1" points="169.84 114.88 169.84 200.07 130.39 200.07 130.39 137.19"/>
        <polygon class="cls-1" points="199.33 0 199.33 130.65 169.84 114.88 169.84 75.85 134.79 96.15 83.49 125.86 83.49 200.07 0 200.07 0 0 199.33 0"/>
      </g>
      <g>
        <path class="cls-2" d="m297.71,55.33c-.94-1.94-1.84-3.47-2.72-4.59-.88-1.12-2.06-2.12-3.56-3-2.62-1.62-5.47-2.44-8.53-2.44s-5.53.62-7.59,1.88c-1.12.69-1.99,1.53-2.58,2.53-.59,1-.89,2.03-.89,3.09,0,1.25.44,2.31,1.31,3.19,1.06,1.12,3.62,2.31,7.69,3.56l11.72,3.38c3,.88,5.45,1.8,7.36,2.77,1.91.97,3.61,2.17,5.11,3.61,2.06,1.94,3.62,4.12,4.69,6.56,1.06,2.44,1.59,5.03,1.59,7.78,0,2.94-.78,5.84-2.34,8.72-1.56,2.88-3.69,5.19-6.38,6.94-2.44,1.63-5.14,2.75-8.11,3.38-2.97.62-6.42.94-10.36.94-4.75,0-8.99-.7-12.7-2.11-3.72-1.41-6.89-3.73-9.52-6.98-2.81-3.5-4.84-7.88-6.09-13.12l12.94-3.47c.62,3.56,1.75,6.34,3.38,8.34,1.31,1.75,3.11,3.09,5.39,4.03,2.28.94,4.64,1.41,7.08,1.41,1.88,0,3.8-.27,5.77-.8,1.97-.53,3.55-1.23,4.73-2.11,1.81-1.31,2.72-3.16,2.72-5.53,0-1.94-.69-3.5-2.06-4.69-1.44-1.25-3.44-2.25-6-3l-12.56-3.66c-5.69-1.56-10-3.66-12.94-6.28-1.94-1.62-3.39-3.59-4.36-5.91-.97-2.31-1.45-4.72-1.45-7.22,0-3.62,1.03-6.94,3.09-9.94s4.69-5.22,7.88-6.66c2.25-1,4.51-1.69,6.8-2.06,2.28-.38,4.76-.56,7.45-.56,5.62.13,10.34,1.22,14.16,3.28,2.87,1.56,5.41,3.64,7.59,6.23,2.19,2.59,3.94,5.61,5.25,9.05l-12.94,3.47Z"/>
        <path class="cls-2" d="m391.18,102.21h-12.94v-40.31l-19.59,40.31h-4.5l-19.59-40.22v40.22h-12.94V34.71h12.94l21.84,44.81,21.84-44.81h12.94v67.5Z"/>
        <path class="cls-2" d="m443.02,91.71h-27.56l-3.19,10.5h-13.12l20.62-67.5h19.03l20.62,67.5h-13.12l-3.28-10.5Zm-3.66-12l-10.22-33-10.03,33h20.25Z"/>
        <path class="cls-2" d="m508.46,76.8l12.38,25.41h-14.44l-11.16-22.97h-15.09v22.97h-12.75V34.71h30.84c2.31,0,4.59.34,6.84,1.03,2.25.69,4.34,1.73,6.28,3.14s3.59,3.05,4.97,4.92c1.44,1.94,2.55,4.08,3.33,6.42s1.17,4.73,1.17,7.17c0,2.25-.41,4.49-1.22,6.7-.81,2.22-1.91,4.27-3.28,6.14-2.06,2.88-4.69,5.06-7.88,6.56Zm-28.31-9.47h18c1.31,0,2.69-.38,4.12-1.12s2.62-1.75,3.56-3c1.38-1.88,2.06-3.81,2.06-5.81,0-2.87-.81-5.22-2.44-7.03-.94-1.06-2.08-1.94-3.42-2.62-1.34-.69-2.64-1.03-3.89-1.03h-18v20.62Z"/>
        <path class="cls-2" d="m578.21,47.46h-21.28v54.75h-12.75v-54.75h-21.28v-12.75h55.31v12.75Z"/>
      </g>
      <g>
        <path class="cls-1" d="m344.77,132.47l-19.78,67.5h-12.56l-13.12-44.62-13.03,44.62h-12.56l-19.78-67.5h13.41l12.66,45.47,12.56-45.38,13.41-.09,12.66,45.47,12.75-45.47h13.41Z"/>
        <path class="cls-1" d="m366.33,198.52c-4.38-1.91-8-4.64-10.88-8.2-2.62-3.19-4.59-6.84-5.91-10.97s-1.97-8.5-1.97-13.12.66-9.01,1.97-13.17c1.31-4.16,3.28-7.83,5.91-11.02,2.87-3.62,6.48-6.36,10.83-8.2,4.34-1.84,9.01-2.77,14.02-2.77s9.66.94,13.97,2.81,7.94,4.59,10.88,8.16c2.69,3.31,4.64,6.97,5.86,10.97,1.22,4,1.89,8.41,2.02,13.22-.13,4.88-.8,9.3-2.02,13.27-1.22,3.97-3.17,7.58-5.86,10.83-3,3.62-6.67,6.38-11.02,8.25-4.34,1.88-8.95,2.81-13.83,2.81s-9.59-.95-13.97-2.86Zm22.22-10.83c2.62-1.12,4.78-2.81,6.47-5.06,3-4,4.5-9.47,4.5-16.41s-1.5-12.47-4.5-16.41c-1.63-2.19-3.7-3.86-6.23-5.02-2.53-1.16-5.24-1.73-8.11-1.73-3.13,0-6.02.56-8.67,1.69-2.66,1.12-4.8,2.81-6.42,5.06-2.94,3.75-4.47,9.22-4.59,16.41.12,7.12,1.66,12.59,4.59,16.41,1.56,2.19,3.62,3.86,6.19,5.02,2.56,1.16,5.28,1.73,8.16,1.73,3.12,0,6-.56,8.62-1.69Z"/>
        <path class="cls-1" d="m439.27,198.52c-4.38-1.91-8-4.64-10.88-8.2-2.62-3.19-4.59-6.84-5.91-10.97s-1.97-8.5-1.97-13.12.66-9.01,1.97-13.17c1.31-4.16,3.28-7.83,5.91-11.02,2.87-3.62,6.48-6.36,10.83-8.2,4.34-1.84,9.01-2.77,14.02-2.77s9.66.94,13.97,2.81,7.94,4.59,10.88,8.16c2.69,3.31,4.64,6.97,5.86,10.97,1.22,4,1.89,8.41,2.02,13.22-.13,4.88-.8,9.3-2.02,13.27-1.22,3.97-3.17,7.58-5.86,10.83-3,3.62-6.67,6.38-11.02,8.25-4.34,1.88-8.95,2.81-13.83,2.81s-9.59-.95-13.97-2.86Zm22.22-10.83c2.62-1.12,4.78-2.81,6.47-5.06,3-4,4.5-9.47,4.5-16.41s-1.5-12.47-4.5-16.41c-1.63-2.19-3.7-3.86-6.23-5.02-2.53-1.16-5.24-1.73-8.11-1.73-3.13,0-6.02.56-8.67,1.69-2.66,1.12-4.8,2.81-6.42,5.06-2.94,3.75-4.47,9.22-4.59,16.41.12,7.12,1.66,12.59,4.59,16.41,1.56,2.19,3.62,3.86,6.19,5.02,2.56,1.16,5.28,1.73,8.16,1.73,3.12,0,6-.56,8.62-1.69Z"/>
        <path class="cls-1" d="m552.52,166.22c0,5.88-1.28,11.38-3.84,16.5-2.75,5.25-6.72,9.44-11.91,12.56-5.19,3.13-10.66,4.69-16.41,4.69h-23.16v-67.5h23.16c5.75,0,11.22,1.56,16.41,4.69,5.19,3.13,9.16,7.31,11.91,12.56,2.56,5.12,3.84,10.63,3.84,16.5Zm-12.94.56c0-4.31-.75-8.06-2.25-11.25-1.63-3.31-4.03-5.97-7.22-7.97-3.19-2-6.66-3.03-10.41-3.09l-9.56-.09v43.69l9.56-.09c3.5-.06,6.91-1.09,10.22-3.09,3.31-2,5.78-4.66,7.41-7.97,1.5-3.19,2.25-6.56,2.25-10.12Z"/>
      </g>
    </g>
  </g>
</svg>