<svg width="20" height="20" viewBox="0 0 20 20" fill="none" xmlns="http://www.w3.org/2000/svg">
<circle cx="10" cy="10" r="10" fill="#B91C1C"/>
<path d="M9.99259 14.072C9.36859 14.072 8.76859 13.972 8.19259 13.772C7.62459 13.564 7.18459 13.3 6.87259 12.98L7.22059 12.296C7.51659 12.584 7.91259 12.828 8.40859 13.028C8.91259 13.22 9.44059 13.316 9.99259 13.316C10.5206 13.316 10.9486 13.252 11.2766 13.124C11.6126 12.988 11.8566 12.808 12.0086 12.584C12.1686 12.36 12.2486 12.112 12.2486 11.84C12.2486 11.512 12.1526 11.248 11.9606 11.048C11.7766 10.848 11.5326 10.692 11.2286 10.58C10.9246 10.46 10.5886 10.356 10.2206 10.268C9.85259 10.18 9.48459 10.088 9.11659 9.992C8.74859 9.888 8.40859 9.752 8.09659 9.584C7.79259 9.416 7.54459 9.196 7.35259 8.924C7.16859 8.644 7.07659 8.28 7.07659 7.832C7.07659 7.416 7.18459 7.036 7.40059 6.692C7.62459 6.34 7.96459 6.06 8.42059 5.852C8.87659 5.636 9.46059 5.528 10.1726 5.528C10.6446 5.528 11.1126 5.596 11.5766 5.732C12.0406 5.86 12.4406 6.04 12.7766 6.272L12.4766 6.98C12.1166 6.74 11.7326 6.564 11.3246 6.452C10.9246 6.34 10.5366 6.284 10.1606 6.284C9.65659 6.284 9.24059 6.352 8.91259 6.488C8.58459 6.624 8.34059 6.808 8.18059 7.04C8.02859 7.264 7.95259 7.52 7.95259 7.808C7.95259 8.136 8.04459 8.4 8.22859 8.6C8.42059 8.8 8.66859 8.956 8.97259 9.068C9.28459 9.18 9.62459 9.28 9.99259 9.368C10.3606 9.456 10.7246 9.552 11.0846 9.656C11.4526 9.76 11.7886 9.896 12.0926 10.064C12.4046 10.224 12.6526 10.44 12.8366 10.712C13.0286 10.984 13.1246 11.34 13.1246 11.78C13.1246 12.188 13.0126 12.568 12.7886 12.92C12.5646 13.264 12.2206 13.544 11.7566 13.76C11.3006 13.968 10.7126 14.072 9.99259 14.072Z" fill="white"/>
</svg>
