<svg width="253" height="149" viewBox="0 0 253 149" fill="none" xmlns="http://www.w3.org/2000/svg">
<g clip-path="url(#clip0_515_379)">
<path d="M253 0H0V149H253V0Z" fill="#E2E8F0"/>
<path d="M84.9762 72.192C84.2722 72.192 83.5922 72.112 82.9362 71.952C82.2802 71.792 81.7402 71.584 81.3162 71.328L82.2282 69.264C82.6282 69.496 83.0722 69.684 83.5602 69.828C84.0562 69.964 84.5362 70.032 85.0002 70.032C85.2722 70.032 85.4842 70.016 85.6362 69.984C85.7962 69.944 85.9122 69.892 85.9842 69.828C86.0562 69.756 86.0922 69.672 86.0922 69.576C86.0922 69.424 86.0082 69.304 85.8402 69.216C85.6722 69.128 85.4482 69.056 85.1682 69C84.8962 68.936 84.5962 68.872 84.2682 68.808C83.9402 68.736 83.6082 68.644 83.2722 68.532C82.9442 68.42 82.6402 68.272 82.3602 68.088C82.0882 67.904 81.8682 67.664 81.7002 67.368C81.5322 67.064 81.4482 66.688 81.4482 66.24C81.4482 65.72 81.5922 65.248 81.8802 64.824C82.1762 64.392 82.6122 64.048 83.1882 63.792C83.7722 63.536 84.4962 63.408 85.3602 63.408C85.9282 63.408 86.4882 63.468 87.0402 63.588C87.5922 63.708 88.0882 63.892 88.5282 64.14L87.6762 66.192C87.2602 65.984 86.8562 65.828 86.4642 65.724C86.0802 65.62 85.7042 65.568 85.3362 65.568C85.0642 65.568 84.8482 65.592 84.6882 65.64C84.5282 65.688 84.4122 65.752 84.3402 65.832C84.2762 65.912 84.2442 66 84.2442 66.096C84.2442 66.24 84.3282 66.356 84.4962 66.444C84.6642 66.524 84.8842 66.592 85.1562 66.648C85.4362 66.704 85.7402 66.764 86.0682 66.828C86.4042 66.892 86.7362 66.98 87.0642 67.092C87.3922 67.204 87.6922 67.352 87.9642 67.536C88.2442 67.72 88.4682 67.96 88.6362 68.256C88.8042 68.552 88.8882 68.92 88.8882 69.36C88.8882 69.872 88.7402 70.344 88.4442 70.776C88.1562 71.2 87.7242 71.544 87.1482 71.808C86.5722 72.064 85.8482 72.192 84.9762 72.192ZM89.7309 72V63.6H92.0589L95.4189 69.084H94.1949L97.4589 63.6H99.7869L99.8109 72H97.2309L97.2069 67.488H97.6149L95.3829 71.244H94.1349L91.8069 67.488H92.3109V72H89.7309ZM100.268 72L103.94 63.6H106.724L110.396 72H107.468L104.756 64.944H105.86L103.148 72H100.268ZM102.452 70.536L103.172 68.496H107.036L107.756 70.536H102.452ZM110.848 72V63.6H114.892C115.676 63.6 116.352 63.728 116.92 63.984C117.496 64.24 117.94 64.608 118.252 65.088C118.564 65.56 118.72 66.12 118.72 66.768C118.72 67.416 118.564 67.976 118.252 68.448C117.94 68.912 117.496 69.268 116.92 69.516C116.352 69.764 115.676 69.888 114.892 69.888H112.42L113.68 68.724V72H110.848ZM115.876 72L113.812 68.94H116.812L118.9 72H115.876ZM113.68 69.036L112.42 67.752H114.712C115.104 67.752 115.392 67.664 115.576 67.488C115.768 67.312 115.864 67.072 115.864 66.768C115.864 66.464 115.768 66.224 115.576 66.048C115.392 65.872 115.104 65.784 114.712 65.784H112.42L113.68 64.5V69.036ZM121.496 72V65.796H119.036V63.6H126.788V65.796H124.328V72H121.496Z" fill="white"/>
<path d="M130.089 87L127.401 78.6H130.317L132.489 85.692H131.025L133.329 78.6H135.933L138.081 85.692H136.677L138.945 78.6H141.633L138.945 87H135.909L134.157 81.192H134.973L133.125 87H130.089ZM146.549 87.192C145.869 87.192 145.237 87.084 144.653 86.868C144.077 86.652 143.577 86.348 143.153 85.956C142.729 85.556 142.397 85.088 142.157 84.552C141.925 84.016 141.809 83.432 141.809 82.8C141.809 82.16 141.925 81.576 142.157 81.048C142.397 80.512 142.729 80.048 143.153 79.656C143.577 79.256 144.077 78.948 144.653 78.732C145.237 78.516 145.869 78.408 146.549 78.408C147.237 78.408 147.869 78.516 148.445 78.732C149.021 78.948 149.521 79.256 149.945 79.656C150.369 80.048 150.697 80.512 150.929 81.048C151.169 81.576 151.289 82.16 151.289 82.8C151.289 83.432 151.169 84.016 150.929 84.552C150.697 85.088 150.369 85.556 149.945 85.956C149.521 86.348 149.021 86.652 148.445 86.868C147.869 87.084 147.237 87.192 146.549 87.192ZM146.549 84.9C146.813 84.9 147.057 84.852 147.281 84.756C147.513 84.66 147.713 84.524 147.881 84.348C148.057 84.164 148.193 83.944 148.289 83.688C148.385 83.424 148.433 83.128 148.433 82.8C148.433 82.472 148.385 82.18 148.289 81.924C148.193 81.66 148.057 81.44 147.881 81.264C147.713 81.08 147.513 80.94 147.281 80.844C147.057 80.748 146.813 80.7 146.549 80.7C146.285 80.7 146.037 80.748 145.805 80.844C145.581 80.94 145.381 81.08 145.205 81.264C145.037 81.44 144.905 81.66 144.809 81.924C144.713 82.18 144.665 82.472 144.665 82.8C144.665 83.128 144.713 83.424 144.809 83.688C144.905 83.944 145.037 84.164 145.205 84.348C145.381 84.524 145.581 84.66 145.805 84.756C146.037 84.852 146.285 84.9 146.549 84.9ZM156.721 87.192C156.041 87.192 155.409 87.084 154.825 86.868C154.249 86.652 153.749 86.348 153.325 85.956C152.901 85.556 152.569 85.088 152.329 84.552C152.097 84.016 151.981 83.432 151.981 82.8C151.981 82.16 152.097 81.576 152.329 81.048C152.569 80.512 152.901 80.048 153.325 79.656C153.749 79.256 154.249 78.948 154.825 78.732C155.409 78.516 156.041 78.408 156.721 78.408C157.409 78.408 158.041 78.516 158.617 78.732C159.193 78.948 159.693 79.256 160.117 79.656C160.541 80.048 160.869 80.512 161.101 81.048C161.341 81.576 161.461 82.16 161.461 82.8C161.461 83.432 161.341 84.016 161.101 84.552C160.869 85.088 160.541 85.556 160.117 85.956C159.693 86.348 159.193 86.652 158.617 86.868C158.041 87.084 157.409 87.192 156.721 87.192ZM156.721 84.9C156.985 84.9 157.229 84.852 157.453 84.756C157.685 84.66 157.885 84.524 158.053 84.348C158.229 84.164 158.365 83.944 158.461 83.688C158.557 83.424 158.605 83.128 158.605 82.8C158.605 82.472 158.557 82.18 158.461 81.924C158.365 81.66 158.229 81.44 158.053 81.264C157.885 81.08 157.685 80.94 157.453 80.844C157.229 80.748 156.985 80.7 156.721 80.7C156.457 80.7 156.209 80.748 155.977 80.844C155.753 80.94 155.553 81.08 155.377 81.264C155.209 81.44 155.077 81.66 154.981 81.924C154.885 82.18 154.837 82.472 154.837 82.8C154.837 83.128 154.885 83.424 154.981 83.688C155.077 83.944 155.209 84.164 155.377 84.348C155.553 84.524 155.753 84.66 155.977 84.756C156.209 84.852 156.457 84.9 156.721 84.9ZM162.489 87V78.6H166.629C167.565 78.6 168.389 78.772 169.101 79.116C169.813 79.452 170.369 79.932 170.769 80.556C171.169 81.18 171.369 81.924 171.369 82.788C171.369 83.66 171.169 84.412 170.769 85.044C170.369 85.668 169.813 86.152 169.101 86.496C168.389 86.832 167.565 87 166.629 87H162.489ZM165.321 84.792H166.509C166.909 84.792 167.257 84.716 167.553 84.564C167.857 84.412 168.093 84.188 168.261 83.892C168.429 83.588 168.513 83.22 168.513 82.788C168.513 82.364 168.429 82.004 168.261 81.708C168.093 81.412 167.857 81.188 167.553 81.036C167.257 80.884 166.909 80.808 166.509 80.808H165.321V84.792Z" fill="white"/>
</g>
<defs>
<clipPath id="clip0_515_379">
<rect width="253" height="149" rx="8" fill="white"/>
</clipPath>
</defs>
</svg>
