<svg width="86" height="86" viewBox="0 0 86 86" fill="none" xmlns="http://www.w3.org/2000/svg">
<path d="M43.7323 40.2118C33.11 40.2118 22.4859 40.1681 11.8636 40.2554C9.93531 40.2722 9.46164 39.6659 9.49691 37.8182C9.59434 33.2511 9.50531 33.2327 13.9682 33.2327C34.4302 33.2327 54.8854 33.2327 75.3474 33.2327C78.1995 33.2327 78.2163 33.2411 78.2079 36.0747C78.1995 41.0734 78.3843 40.1664 74.0977 40.1765C63.9759 40.2118 53.8558 40.1849 43.7256 40.1849C43.7323 40.2034 43.7323 40.2034 43.7323 40.2118Z" fill="#14532D"/>
<path d="M11.9692 43.6971C15.8593 43.6971 19.7579 43.6534 23.648 43.7491C24.2107 43.7659 25.012 44.3471 25.2857 44.8846C29.3875 52.8228 33.4188 60.7963 37.4584 68.7714C37.8901 69.6247 38.3033 70.4965 38.7165 71.3582C38.5586 71.4808 38.3991 71.6135 38.2328 71.7361C29.3254 62.6439 20.4197 53.5619 11.5039 44.4697C11.6702 44.2077 11.8197 43.9524 11.9692 43.6971Z" fill="#14532D"/>
<path d="M28.8232 43.6971C33.2408 43.6971 36.9294 43.6618 40.6163 43.7139C42.2355 43.7307 42.0071 45.0257 42.0155 46.0722C42.0676 53.1924 42.1129 60.3126 42.1566 67.4328C42.165 68.6203 42.1566 69.7994 41.7249 71.2003C37.5106 62.2241 33.2946 53.2461 28.8232 43.6971Z" fill="#4338CA"/>
<path d="M50.1484 70.4966C54.2066 62.3904 58.3151 54.3027 62.2859 46.1444C63.1391 44.4026 64.0277 43.5224 66.1055 43.6451C69.3523 43.8483 72.6277 43.6971 75.8829 43.6971C76.0156 43.8903 76.1382 44.0935 76.2709 44.2867C67.6541 53.1403 59.039 61.994 50.4306 70.8493C50.3332 70.7351 50.2459 70.6125 50.1484 70.4966Z" fill="#4338CA"/>
<path d="M46.1275 70.9819C46.1275 68.8789 46.0838 67.1102 46.1359 65.3398C46.3291 58.9234 46.628 52.5171 46.7339 46.1007C46.7691 44.253 47.2882 43.5744 49.1896 43.6634C52.2869 43.8045 55.4027 43.6987 59.1971 43.6987C54.7258 53.0361 50.5014 61.8544 46.1275 70.9819Z" fill="#14532D"/>
<path d="M42.4036 29.502C37.7206 29.502 33.4004 29.502 28.5596 29.502C30.9363 26.959 32.9335 24.6965 35.107 22.6204C35.4849 22.2592 36.9815 22.4003 37.3511 22.8236C39.0761 24.846 40.5912 27.0547 42.4036 29.502Z" fill="#14532D"/>
<path d="M47.6221 29.4668C49.594 27.0463 51.2401 24.9434 52.982 22.9193C53.8453 21.9166 54.9892 21.925 55.6493 23.0873C56.7663 25.0408 57.6733 27.127 58.8273 29.4768C55.0245 29.4668 51.566 29.4668 47.6221 29.4668Z" fill="#14532D"/>
<path d="M76.6307 29.502C72.3189 29.502 68.4103 29.502 63.9658 29.502C65.9277 27.4427 67.5217 25.6908 69.2468 24.0548C69.5105 23.8079 70.4964 23.9406 70.8576 24.2479C72.7321 25.8487 74.5109 27.5469 76.6307 29.502Z" fill="#14532D"/>
<path d="M23.0592 29.6953C19.6007 29.6953 16.1422 29.7037 12.6921 29.6869C12.3663 29.6869 12.0404 29.5726 11.125 29.4047C13.7218 27.4243 15.9037 25.7262 18.1394 24.0969C18.3678 23.9289 19.0548 24.0095 19.2564 24.2195C20.6908 25.8118 22.0463 27.4764 23.4287 29.1225C23.3061 29.3173 23.1835 29.5105 23.0592 29.6953Z" fill="#14532D"/>
<path d="M25.8672 27.3101C24.4596 25.753 23.1125 24.2648 21.458 22.434C24.7502 22.434 27.5922 22.434 31.0154 22.434C29.1056 24.2379 27.5654 25.6993 25.8672 27.3101Z" fill="#4338CA"/>
<path d="M49.3227 22.434C47.7741 24.2295 46.5244 25.6724 45.0547 27.3806C43.6471 25.6993 42.4226 24.248 40.9092 22.434C43.847 22.434 46.3211 22.434 49.3227 22.434Z" fill="#4338CA"/>
<path d="M66.062 22.4255C64.6628 24.0095 63.6601 25.1718 62.6203 26.3073C62.3919 26.5542 62.0392 26.6852 61.5386 27.0111C60.6316 25.5498 59.7615 24.159 58.6865 22.4255C61.2648 22.4255 63.3947 22.4255 66.062 22.4255Z" fill="#4338CA"/>
</svg>
