<svg width="86" height="86" viewBox="0 0 86 86" fill="none" xmlns="http://www.w3.org/2000/svg">
<path d="M17.9704 42.8354C20.584 46.1663 23.1892 49.5072 25.8028 52.838C29.1269 57.091 32.4946 61.3003 35.7516 65.6053C36.7879 66.9709 37.5421 66.8147 38.7078 65.822C42.2889 62.7784 45.9405 59.8204 49.5821 56.8457C49.7971 56.671 50.0793 56.4628 50.3111 56.3939C50.8687 56.2192 50.8503 56.3334 51.1173 56.367C46.8929 61.0634 41.7262 64.6294 36.8249 68.9176C30.1414 60.316 23.6024 51.8873 17.0566 43.4687C17.3539 43.2604 17.663 43.0437 17.9704 42.8354Z" fill="#14532D"/>
<path d="M47.7478 53.5148C46.5401 54.5764 45.3307 55.6464 44.123 56.7063C42.5894 58.045 41.029 59.3669 39.5123 60.7325C38.4591 61.6798 37.7385 61.663 36.813 60.4016C32.3148 54.2606 27.7041 48.207 23.1538 42.1198C20.8056 38.9721 18.4843 35.8059 16.1528 32.6397C15.9563 32.3793 15.9127 32.3693 15.6641 31.7881C15.4155 31.2052 16.6064 31.1263 17.7889 32.9017C24.2321 41.4681 30.6855 50.0177 37.0263 58.6631C38.0896 60.116 38.7396 59.9061 39.8448 58.9066C41.9092 57.0372 45.6549 53.9499 46.1773 53.4628C46.703 52.9757 47.5932 53.3234 47.7478 53.5148Z" fill="#14532D"/>
<path d="M11.999 42.1736C15.9496 47.5133 19.6684 52.5406 23.3873 57.5679C20.9349 57.0371 11.7067 44.3303 11.999 42.1736Z" fill="#14532D"/>
<path d="M53.6007 61.4211C50.6612 63.9339 47.7134 66.4568 44.7739 68.9696C44.5337 68.6824 44.2851 68.3867 44.0449 68.0995C46.9928 65.5951 49.949 63.089 52.8969 60.5846C53.1304 60.8651 53.3605 61.1423 53.6007 61.4211Z" fill="#14532D"/>
<path d="M62.0494 53.446C66.4605 53.446 70.0363 49.8167 70.0363 45.3398C70.0363 40.8629 66.4605 37.2336 62.0494 37.2336C57.6384 37.2336 54.0625 40.8629 54.0625 45.3398C54.0625 49.8167 57.6384 53.446 62.0494 53.446Z" fill="#4338CA"/>
<path d="M75.1339 76.5467H10.7397C10.1568 76.5467 9.68652 76.068 9.68652 75.4768V72.2064C9.68652 71.6152 10.1585 71.1365 10.7397 71.1365H75.1356C75.7184 71.1365 76.1887 71.6152 76.1887 72.2064V75.4768C76.1887 76.068 75.7083 76.5467 75.1339 76.5467Z" fill="#14532D"/>
</svg>
