<svg width="86" height="86" viewBox="0 0 86 86" fill="none" xmlns="http://www.w3.org/2000/svg">
<path d="M44.3031 34.4637C41.8558 36.817 39.0742 39.4944 36.5933 41.8812C35.0732 41.2799 33.795 40.5157 32.4294 40.2923C30.2139 39.9227 28.771 38.9351 28.0941 36.7548C27.9312 36.2224 27.2962 35.6043 26.7453 35.4413C23.4565 34.4705 20.1173 33.6726 16.82 32.7202C15.095 32.223 13.4287 31.5008 11.7289 30.9263C9.02461 30.0075 9.01621 30.0243 10.1315 26.8229C15.2747 28.6352 20.4347 30.4459 25.5947 32.2583C25.8265 32.0954 26.0583 31.9409 26.2901 31.7779C25.8433 30.2847 25.3277 28.8066 24.9682 27.2881C24.8053 26.6095 24.943 25.8721 24.943 24.9953C26.1625 26.0166 26.9099 26.9102 27.8623 27.2965C28.1714 27.4259 29.631 25.9141 29.5202 25.7075C29.023 24.772 28.1462 24.0329 26.9267 22.7026C29.4244 23.1662 31.5291 23.5525 34.0704 24.0161C33.9075 22.9344 33.9075 22.1012 33.6505 21.3639C32.3202 17.5779 30.8941 13.8254 29.5554 10.0394C29.2464 9.17269 28.6198 8.11617 30.1903 7.60891C31.5039 7.17891 32.2933 7.29984 32.7922 8.81996C34.2434 13.2409 35.8492 17.603 37.3777 21.9988C37.5155 22.4019 37.6532 22.8571 37.6095 23.2602C37.4113 24.9181 37.9186 26.1107 39.6873 26.4029C42.3059 26.8413 41.8759 29.2013 42.615 30.8339C43.092 31.8535 43.5724 32.8848 44.3031 34.4637ZM39.7444 33.6827C39.6839 30.7886 36.1818 27.226 33.2877 27.7836C31.9658 28.0406 30.1618 29.895 30.0257 31.1833C29.846 32.8227 30.7816 34.9189 31.9154 36.2325C32.7132 37.1513 34.6365 37.2117 36.0961 37.4351C37.3223 37.6316 39.7696 34.971 39.7444 33.6827Z" fill="#14532D"/>
<path d="M42.723 16.2023C43.7274 17.0774 45.0494 17.5847 44.1054 19.5516C43.462 20.8903 43.8299 22.4457 45.2039 23.6131C46.9474 25.0811 48.5263 26.7473 50.3034 28.4472C49.2301 29.5894 48.3802 30.4998 47.7453 31.1683C45.5213 28.8335 43.4872 26.7977 41.564 24.6595C39.5551 22.4272 40.148 17.9794 42.723 16.2023Z" fill="#14532D"/>
<path d="M33.2526 45.3247C32.5908 45.9512 31.7241 46.7759 30.1956 48.2188C28.788 46.5189 27.414 44.8796 26.0485 43.2301C24.8038 41.7268 23.1728 41.1859 21.4125 41.9418C19.7983 42.6372 18.6998 41.7436 18.5873 40.6803C18.51 39.9077 19.8067 38.3456 20.6315 38.2498C23.319 37.9324 26.0149 37.9324 28.049 40.4821C29.4498 42.2173 31.3294 43.5644 33.2526 45.3247Z" fill="#14532D"/>
<path d="M74.7333 45.3331C75.3262 46.4316 76.381 47.5217 76.1593 48.1667C75.7041 49.4802 74.5115 50.2109 72.8016 50.2529C69.6421 50.3302 66.7665 50.1068 64.8937 47.1018C64.6703 46.7407 64.0958 46.6046 63.2963 46.7071C63.5969 47.1371 63.8119 47.6511 64.2067 47.9685C65.6915 49.1796 67.2469 50.1756 67.5644 52.4163C67.7441 53.7214 68.6629 55.0098 69.4876 56.1167C71.4444 58.7353 71.1354 61.8007 71.3772 64.7284C71.557 67.0548 69.711 68.884 67.393 68.7631C63.1602 68.5313 59.2113 67.5436 55.3564 65.4658C53.1577 64.2816 51.2445 63.1731 49.8789 61.1222C49.7412 60.9156 49.244 60.9424 48.5217 61.2515C49.2776 62.0678 50.015 62.9093 50.7977 63.7072C52.0944 65.0291 53.3559 70.216 52.4892 71.7428C52.0004 72.6011 51.0295 73.5451 50.1359 73.7097C49.5094 73.8307 48.6511 72.6969 47.9288 72.1476C49.7664 69.057 49.5178 67.2883 47.1226 64.8847C46.4708 64.2229 45.9384 63.3813 45.1741 62.9009C41.2168 60.3932 41.3024 56.891 42.3489 52.9673C42.8209 51.1902 42.3153 49.0351 44.8298 48.202C45.3102 48.9914 45.8006 49.8162 46.496 50.9668C48.6511 48.8638 50.7205 47.0094 52.5144 44.9132C52.763 44.6209 51.6644 43.1781 50.9606 41.8309C51.4242 40.8954 52.4724 40.1311 54.3603 40.1647C56.1374 40.1983 57.9498 39.8304 59.7101 39.4525C61.1866 39.135 62.1994 39.6238 63.1535 40.6468C64.682 42.2609 66.3382 43.7542 67.8062 45.412C69.2037 47.0077 72.5782 47.3689 74.7333 45.3331ZM55.054 61.6563C55.8788 61.3993 56.3928 61.3808 56.6682 61.1238C58.9778 58.8999 61.331 56.6928 63.4592 54.2976C63.8623 53.8424 63.6221 52.245 63.1165 51.7125C62.3876 50.9567 61.2958 49.9875 59.9906 51.3598C57.9733 53.4813 55.7662 55.4213 53.7405 57.5411C53.3105 57.9879 52.9847 59.0091 53.2081 59.4895C53.6112 60.3596 54.4695 61.0113 55.054 61.6563ZM60.0511 49.0082C59.6043 48.5195 59.3037 47.8913 58.8837 47.7888C58.1883 47.6259 57.1486 47.5133 56.7203 47.8913C54.4796 49.9002 52.2809 51.9779 50.324 54.2455C49.8772 54.7612 50.4265 56.1352 50.5222 57.1127C51.2697 56.9145 52.2137 56.9414 52.7109 56.4778C54.8323 54.5546 56.8328 52.4852 58.8585 50.4595C59.2432 50.0816 59.5606 49.618 60.0511 49.0082ZM57.1654 62.6339C58.3328 62.9597 59.218 63.4502 59.4582 63.2352C61.6653 61.2868 63.7935 59.2426 65.8544 57.1396C66.0258 56.9599 65.631 56.0579 65.2968 55.6632C65.1674 55.5086 64.3343 55.6716 64.0605 55.9386C61.8887 57.9811 59.7672 60.0841 57.1654 62.6339ZM47.8247 53.5165C48.0565 53.4997 48.2883 53.4913 48.5285 53.4729C51.0614 51.0524 53.5944 48.6219 56.1274 46.1998C56.0333 45.9512 55.9392 45.711 55.8435 45.4607C54.9852 45.6841 53.9035 45.6673 53.3105 46.1813C51.5334 47.735 49.8672 49.4349 48.3219 51.2221C47.8667 51.7478 47.9708 52.7355 47.8247 53.5165ZM67.22 59.2006C67.0571 59.167 66.8858 59.1317 66.7228 59.0897C65.0146 60.6955 63.3063 62.3097 61.1849 64.3102C64.2587 64.5504 65.0751 62.2576 66.5683 61.1255C67.0134 60.7879 67.0134 59.8523 67.22 59.2006Z" fill="#14532D"/>
<path d="M39.3501 53.6022C39.3501 57.2337 39.5046 60.3159 39.2644 63.3729C39.1871 64.3858 38.1575 65.3902 37.3747 66.2233C37.237 66.3695 36.0864 65.6909 35.5204 65.2525C35.2718 65.0644 35.2029 64.4966 35.2449 64.1187C35.433 62.4441 35.9924 60.761 35.8462 59.1216C35.6144 56.5551 37.0489 55.2684 39.3501 53.6022Z" fill="#14532D"/>
<path d="M56.0752 36.9715C57.7146 34.9274 58.8047 33.3233 61.3293 33.4778C63.0644 33.5803 64.8415 32.9705 66.5833 33.0663C67.356 33.1099 68.0766 34.0959 68.824 34.6469C68.0178 35.4279 67.3392 36.5785 66.3767 36.9044C65.2177 37.2907 63.8186 36.9816 62.5134 36.9816C60.5314 36.9631 58.5477 36.9715 56.0752 36.9715Z" fill="#14532D"/>
<path d="M1.05664 80.5964L4.71332 84.2279L84.8025 4.72157L81.1458 1.09009L1.05664 80.5964Z" fill="#4338CA"/>
</svg>
