<svg width="86" height="86" viewBox="0 0 86 86" fill="none" xmlns="http://www.w3.org/2000/svg">
<g clip-path="url(#clip0_401_850)">
<path d="M42.1237 2.22723C42.0044 6.41637 41.9943 10.6038 42.1136 14.793C42.1724 16.8136 41.351 17.3679 39.4009 17.3377C32.3697 17.2588 25.3302 17.3075 18.2889 17.3075C17.4171 17.3075 16.5454 17.3075 15.3175 17.3075C15.3175 20.1495 15.2184 22.6052 15.3965 25.0307C15.4368 25.5547 16.3774 26.3375 16.9804 26.4265C18.4065 26.6348 19.8813 26.4954 21.3375 26.4954C38.5678 26.4954 55.7879 26.455 73.0165 26.5541C75.3429 26.5642 76.2045 25.9495 75.9677 23.6332C75.7695 21.6831 75.9274 19.7027 75.9274 17.4939C74.8188 17.425 73.8782 17.3259 72.9375 17.3159C65.0161 17.3058 57.0846 17.247 49.1616 17.3461C47.151 17.3663 46.4774 16.7414 46.5177 14.7812C46.6168 10.5031 46.5664 6.22489 46.558 1.74012C46.558 1.11696 46.0625 -0.161284 48.5686 -0.141128L45.3705 -0.161284L39.4899 -0.198238C41.4703 -0.218394 42.1825 0.376215 42.1237 2.22723Z" fill="#14532D"/>
<path d="M45.8961 77.069C34.9043 77.069 23.9225 77.0388 12.9323 77.0992C10.9922 77.1093 9.99113 76.7818 10.0314 74.5243C10.0718 72.386 10.4967 71.4639 12.9524 71.474C35.005 71.5529 57.0577 71.5529 79.1187 71.474C81.4266 71.4639 81.7323 72.4247 81.7222 74.316C81.702 76.1972 81.4148 77.1479 79.0985 77.1177C68.0277 77.0186 56.9569 77.0791 45.8961 77.069C45.8961 77.0791 45.8961 77.0791 45.8961 77.069Z" fill="#14532D"/>
<path d="M67.0182 38.9754C67.0182 41.2632 66.9778 43.5408 67.0282 45.8185C67.0686 47.5519 66.0876 47.9567 64.5625 47.8778C63.1566 47.7988 61.5121 48.244 61.5222 45.9562C61.5525 41.3119 61.5424 36.6675 61.4819 32.0232C61.4517 29.9236 62.8979 30.1319 64.2836 30.1218C65.7097 30.1218 67.0954 30.0529 67.0366 32.1122C66.9577 34.41 67.0182 36.6877 67.0182 38.9754Z" fill="#14532D"/>
<path d="M57.8488 38.9854C57.8488 41.2631 57.8001 43.5508 57.8588 45.8285C57.9176 48.0171 56.4227 47.8676 54.9177 47.8878C53.4026 47.9079 52.2252 47.7887 52.2638 45.7983C52.3428 41.2329 52.3629 36.6691 52.2638 32.1138C52.2151 29.7975 53.7789 30.1637 55.1949 30.1335C56.631 30.1032 57.9781 30.0545 57.8689 32.1441C57.7597 34.42 57.8588 36.7078 57.8488 38.9854Z" fill="#14532D"/>
<path d="M24.6161 38.7975C24.6161 36.5097 24.6463 34.2119 24.606 31.9259C24.5573 29.6885 26.2101 30.2126 27.4967 30.1824C28.7935 30.1421 30.1893 29.9455 30.1708 31.9444C30.1305 36.5988 30.1221 41.2616 30.1708 45.916C30.191 48.0055 28.7548 47.8476 27.359 47.8762C25.9128 47.9064 24.5371 47.9551 24.606 45.8958C24.6765 43.5308 24.6262 41.1642 24.6161 38.7975Z" fill="#14532D"/>
<path d="M75.9286 38.9048C75.9286 41.2714 75.8496 43.6482 75.9488 46.0048C76.0277 47.9852 74.7108 47.8961 73.3839 47.876C72.0468 47.8558 70.4629 48.1934 70.4629 46.0636C70.473 41.3302 70.4629 36.5868 70.483 31.8534C70.4931 29.4464 72.4046 30.2897 73.6812 30.1603C75.0283 30.031 76.0378 30.2796 75.9488 32.0315C75.8396 34.3209 75.9286 36.6187 75.9286 38.9048Z" fill="#14532D"/>
<path d="M43.0341 38.9554C43.0341 36.6676 43.1131 34.3698 43.0039 32.0939C42.8947 29.707 44.6483 30.2613 45.9837 30.1437C47.3795 30.0245 48.5284 30.1034 48.4897 32.025C48.4007 36.6794 48.4108 41.3422 48.4797 45.9966C48.52 48.4036 46.7563 47.7586 45.4394 47.8678C43.9647 47.9871 42.9249 47.6394 43.014 45.8287C43.1231 43.5392 43.0442 41.2532 43.0341 38.9554Z" fill="#14532D"/>
<path d="M15.3172 38.9956C15.3172 36.7078 15.4264 34.41 15.287 32.124C15.1476 29.9756 16.5451 30.1134 17.961 30.1638C19.2578 30.2041 20.793 29.7472 20.7443 31.9963C20.6452 36.6507 20.6553 41.3135 20.7342 45.978C20.7745 48.1364 19.3182 47.8593 17.951 47.8895C16.5148 47.9197 15.1677 47.9785 15.287 45.8688C15.4264 43.5794 15.3172 41.2816 15.3172 38.9956Z" fill="#14532D"/>
<path d="M39.2719 39.2021C39.2719 41.4008 39.2131 43.6079 39.292 45.8066C39.3508 47.5585 38.4001 47.9751 36.8665 47.876C35.4707 47.787 33.7877 48.2422 33.7961 45.9645C33.8162 41.3202 33.8364 36.6758 33.7961 32.0416C33.7759 29.7337 35.4506 30.209 36.8262 30.1402C38.2624 30.0713 39.371 30.2695 39.3021 32.1205C39.2131 34.4771 39.2819 36.8438 39.2819 39.2004H39.2719V39.2021Z" fill="#14532D"/>
<path d="M55.5206 65.7596C53.1842 65.7596 51.2139 63.8381 51.2626 61.6108C51.3029 59.3734 53.2833 57.5711 55.6499 57.5997C58.0855 57.64 59.651 59.1937 59.6896 61.6108C59.7299 64.1068 58.0754 65.7596 55.5206 65.7596Z" fill="#4338CA"/>
<path d="M71.7614 55.0853C71.7513 56.9463 70.8107 57.8685 69.0873 57.9172C67.5034 57.9659 66.2352 57.5712 66.1663 55.6093C66.0975 53.7869 66.8701 52.6783 68.701 52.5892C70.4243 52.5204 71.5816 53.3921 71.7614 55.0853Z" fill="#4338CA"/>
<path d="M40.6086 57.2151C41.3124 58.0969 42.6981 59.1165 42.5486 59.8186C42.3404 60.8096 40.9849 61.5621 40.1232 62.4221C39.3119 61.6192 38.0538 60.9272 37.8052 59.9866C37.4407 58.5807 38.4989 57.6804 40.6086 57.2151Z" fill="#4338CA"/>
<path d="M23.1215 60.5526C21.8836 61.4244 21.0723 62.3952 20.5365 62.2659C19.7437 62.0778 19.1407 61.1069 18.457 60.4636C19.1692 59.8488 19.8041 58.8998 20.6054 58.7301C21.1412 58.631 21.9138 59.6405 23.1215 60.5526Z" fill="#4338CA"/>
</g>
<defs>
<clipPath id="clip0_401_850">
<rect width="86" height="86" fill="white"/>
</clipPath>
</defs>
</svg>
