<svg width="86" height="86" viewBox="0 0 86 86" fill="none" xmlns="http://www.w3.org/2000/svg">
<path d="M65.7158 69.2635C66.386 68.2254 67.0797 67.1958 67.7062 66.1393C68.0573 65.5564 68.3075 64.9114 68.6939 64.0968C69.5942 64.8442 70.3668 65.4791 71.1395 66.1057C71.2419 66.0368 71.3377 65.9679 71.4401 65.8907C70.5482 64.4747 69.6714 63.0419 68.7459 61.6427C68.6166 61.4445 68.2219 61.2144 68.0589 61.2732C65.7242 62.1651 65.6385 60.3208 65.1245 58.93C63.9151 55.695 63.3222 55.2818 59.8033 55.3506C63.2701 56.3198 63.6061 59.2895 64.3955 61.9938C64.713 63.0923 64.4728 63.6852 63.3491 64.0111C61.2209 64.6208 59.1432 65.4523 56.9814 65.8907C55.9433 66.0973 54.655 65.847 53.669 65.4019C51.1462 64.2597 48.7005 62.9395 46.2801 61.5991C44.1251 60.4149 42.2203 60.8012 40.1005 61.8561C38.1874 62.8084 36.0155 63.22 33.6287 63.9674C33.7496 60.4653 35.3873 58.4312 37.3962 56.5785C37.2417 56.424 37.0872 56.2778 36.9326 56.1233C36.1852 56.639 35.3537 57.0589 34.7104 57.677C33.4574 58.878 32.1355 60.0622 31.1579 61.4697C28.8752 64.7569 25.7846 66.4215 21.8894 67.0228C19.4605 67.4007 17.0922 68.1902 14.3375 68.8856C14.3375 67.4175 14.3375 66.3274 14.3375 65.2373C14.3375 59.187 14.3543 53.1267 14.3207 47.0765C14.3123 45.9343 14.5189 45.0424 15.8744 45.2658C18.6644 45.7294 20.1576 44.0648 21.6844 42.1416C22.2505 41.421 23.4532 40.9053 24.3971 40.8449C27.1182 40.6735 29.8477 40.7844 32.9031 40.7844C32.0884 45.8738 31.2116 51.3748 30.3281 56.8674C30.3802 56.9363 30.4222 57.0051 30.4742 57.0656C31.3242 55.0651 32.5167 53.1435 32.9367 51.0658C33.6841 47.4091 33.9327 43.6583 34.4467 39.9597C34.6869 38.2262 35.8207 37.3763 37.5273 37.5913C40.1963 37.9256 42.8653 38.3472 45.5007 38.888C46.1441 39.0174 46.6765 39.7295 47.2594 40.1663C47.2762 40.3981 47.293 40.6383 47.3198 40.8701C45.0019 41.6595 42.694 42.449 40.376 43.2384C40.4012 43.3845 40.4281 43.5391 40.4449 43.6852C42.6251 43.3509 44.7969 42.9562 46.9839 42.6975C47.9447 42.5867 49.4564 42.3549 49.8326 42.8521C51.0521 44.4562 51.8919 46.3626 52.7855 48.1901C52.9065 48.4387 52.631 49.0736 52.3572 49.3054C49.663 51.5797 47.8422 55.013 43.947 55.7168C43.7841 55.742 43.6548 55.957 43.5607 56.0511C47.2594 57.588 50.9076 59.1064 54.5542 60.6249C54.6483 60.4099 54.7424 60.1965 54.8381 59.9815C53.1383 58.9435 51.4737 57.8366 49.7235 56.8825C48.2722 56.0931 48.247 55.2431 49.2683 54.111C51.037 52.1542 52.7435 50.1537 54.5542 48.2405C54.9826 47.7853 55.7552 47.3301 56.323 47.3906C59.4556 47.7165 60.8548 45.5799 62.2019 43.2619C61.8155 43.5374 61.3956 43.7776 61.0345 44.095C57.6701 47.0899 54.6231 46.8245 51.8432 43.2535C50.7363 41.8292 49.7571 40.3006 48.5729 38.9535C48.032 38.3438 47.1905 37.8802 46.3926 37.6316C43.7656 36.8254 41.0966 36.1468 38.3587 35.3909C38.9684 32.5758 40.2987 30.5417 42.7612 29.2886C38.5552 29.5456 37.5692 33.34 35.3453 36.0426C33.8857 34.0253 32.4882 32.2398 31.2855 30.3267C31.0285 29.9235 31.3628 29.0131 31.6366 28.4303C32.1859 27.2461 32.8812 26.1308 33.6959 24.6795C32.426 24.1555 31.2923 23.6919 30.1685 23.2283C30.0829 23.3912 29.9972 23.5458 29.92 23.7087C30.5801 24.2243 31.2503 24.7467 31.9977 25.3313C31.6635 26.0015 31.4821 26.7136 31.0453 27.2024C29.0196 29.4431 30.0157 31.3227 31.6383 33.1586C31.818 33.3652 32.033 33.5701 32.1539 33.8187C32.6595 34.892 33.1416 35.9822 33.6304 37.0622C32.0347 37.7492 30.4894 38.762 28.8332 39.0274C27.1686 39.2928 25.3663 38.9166 23.6665 38.5991C22.1816 38.3236 21.2712 38.7788 20.6279 40.0756C20.2332 40.8818 19.7091 41.6293 19.306 42.4355C18.31 44.436 16.5933 44.7535 14.4819 44.6158C14.4299 43.9204 14.3526 43.3106 14.3526 42.7026C14.3442 34.7039 14.3963 26.6968 14.3089 18.6982C14.2921 16.9295 14.8918 16.4491 16.5916 16.4675C24.7969 16.5364 33.0005 16.4675 41.2058 16.5448C42.1246 16.5532 43.0517 17.1713 43.9521 17.5577C44.2611 17.687 44.4929 18.0045 44.7852 18.1758C48.3898 20.356 50.4928 23.3509 50.4928 27.7618C50.4928 30.0697 52.0801 31.7443 53.5817 33.1519C52.8695 30.2947 52.1305 27.367 51.4015 24.4326C51.6417 24.3033 51.8735 24.184 52.1137 24.0547C54.9372 26.2097 57.786 28.3295 60.5507 30.5601C60.8934 30.8356 60.7993 31.7191 60.8161 32.3188C60.8329 33.0746 60.7473 33.8204 60.6616 35.228C63.5624 32.5842 66.0433 30.3267 69.013 27.624C69.013 29.9588 69.013 31.6318 69.013 33.3148C70.8674 30.8776 69.5186 27.4443 72.2481 24.8005C72.3858 25.8822 72.5135 26.4399 72.5135 27.0059C72.5135 39.528 72.5051 52.05 72.4883 64.5721C72.4883 65.1986 72.4715 65.8252 72.3858 66.4433C72.2229 67.5855 72.0163 69.7052 71.803 69.7136C69.8025 69.7472 67.7952 69.4214 65.7947 69.198C65.7578 69.2047 65.7158 69.2635 65.7158 69.2635Z" fill="#14532D"/>
<path d="M14.9756 69.3761C17.4212 69.015 19.8937 68.7832 22.2957 68.2524C24.9042 67.6695 27.4372 66.7676 30.0205 66.0554C31.3677 65.6858 32.7584 65.4288 34.5607 65.0173C34.2265 66.5542 34.0031 67.5234 33.7881 68.501C33.8905 68.5867 33.9947 68.6639 34.0971 68.7496C34.6632 68.0542 35.1873 67.3252 35.8138 66.6819C36.6721 65.8068 37.5136 64.8796 38.5181 64.201C42.0454 61.8242 45.5123 61.6176 48.9288 64.5873C49.9937 65.5145 51.3576 66.0806 52.5855 66.8095C52.6291 67.0497 52.6795 67.2899 52.7232 67.5301C50.9125 68.3364 49.1102 69.796 47.2726 69.838C36.9224 70.0614 26.5721 69.9489 16.2118 69.9405C15.8087 69.9405 15.4056 69.8464 15.0025 69.8028C14.9924 69.6667 14.984 69.5222 14.9756 69.3761Z" fill="#4338CA"/>
<path d="M46.336 16.7312C53.2882 16.7312 60.2405 16.7312 67.191 16.7312C67.2599 16.9193 67.3204 17.1175 67.3892 17.3057C63.7241 19.5464 61.1929 23.8027 56.0597 23.3996C54.8151 23.3055 53.4428 22.8755 52.4215 22.1902C50.1909 20.6885 48.1467 18.9198 46.0186 17.2553C46.1227 17.0823 46.2336 16.9109 46.336 16.7312Z" fill="#4338CA"/>
<path d="M63.1406 30.4291C61.3299 28.8586 59.6048 27.357 57.7773 25.7596C58.335 25.3732 58.7465 24.9953 59.237 24.7635C62.7123 23.1073 65.682 20.8834 68.0167 17.734C68.566 16.9866 69.9736 16.7128 71.0284 16.5918C71.4483 16.5482 72.221 17.467 72.4024 18.0683C72.6426 18.9014 72.4024 19.8622 72.4796 20.7541C72.5821 22.118 72.0328 22.8655 70.7714 23.4836C69.5788 24.0664 68.608 25.1062 67.5279 25.9292C66.6091 26.633 65.5795 27.2343 64.7732 28.049C64.0846 28.7629 63.6294 29.6984 63.1406 30.4291Z" fill="#4338CA"/>
<path d="M65.7578 69.2047C65.3546 69.4449 64.9599 69.9001 64.5484 69.9001C60.2148 69.9522 55.8795 69.9337 51.5459 69.9337C51.5023 69.6583 51.4519 69.3845 51.4082 69.109C56.0257 68.0273 60.6515 66.954 65.7074 65.7698C65.7074 67.263 65.7074 68.2675 65.7074 69.2719C65.7158 69.2635 65.7578 69.2047 65.7578 69.2047Z" fill="#14532D"/>
</svg>
