<svg width="86" height="86" viewBox="0 0 86 86" fill="none" xmlns="http://www.w3.org/2000/svg">
<path d="M33.8277 42.3081C33.8797 41.7656 34.0427 41.2163 33.9738 40.6906C33.354 35.754 34.6272 31.118 36.0213 26.4737C37.7413 20.7376 37.6809 20.6855 43.7025 20.6939C48.0882 20.7023 46.7646 20.0489 48.7937 24.1003C50.0064 26.5258 50.8832 29.1326 52.2337 31.4708C53.6698 33.9735 51.8037 35.5138 50.7807 37.1044C49.4655 39.1436 48.3989 40.8115 49.6621 43.3747C50.1945 44.4581 49.5495 46.1361 49.4387 47.6243C50.8832 45.8187 51.5114 43.9777 50.9605 41.6295C50.7371 40.6755 51.1923 39.1436 51.9061 38.465C55.0102 35.5239 55.5443 32.4534 53.5237 28.6254C52.2857 26.2772 51.6307 23.6199 50.5741 20.704C54.0662 20.704 56.9821 20.6704 59.8897 20.7476C60.2592 20.756 60.7665 21.3238 60.9563 21.7454C62.814 25.995 63.837 30.337 62.4008 34.9729C61.7726 37.002 61.9876 38.8093 63.9915 40.0909C65.3755 40.9761 65.3252 42.0175 64.791 43.6351C64.0771 45.8287 64.146 48.2794 63.8705 50.6192C64.1376 50.6528 64.4131 50.6881 64.6785 50.7133C64.7725 50.1371 64.9875 49.5442 64.9539 48.9765C64.7826 46.4905 65.4612 44.2465 66.8806 42.2594C67.8531 40.9005 67.6885 39.9801 66.2003 39.2662C64.4114 38.4062 63.6975 37.0725 64.1191 35.0519C65.0144 30.7351 64.8935 26.4418 63.4305 22.2359C63.3448 21.9772 63.3448 21.6849 63.3448 21.401C63.3448 21.2717 63.4473 21.1525 63.6371 20.7124C66.1314 20.7124 68.7719 20.6351 71.3955 20.798C71.792 20.8232 72.4185 21.9671 72.4269 22.5953C72.5041 28.2726 72.4705 33.9483 72.4705 39.6257C72.4705 50.4882 72.437 61.3507 72.5041 72.2234C72.5125 73.9517 72.0405 74.5279 70.2853 74.5195C52.2236 74.4758 34.1703 74.4758 16.1086 74.5447C14.1988 74.5531 13.752 73.8224 13.752 72.0856C13.7957 55.6835 13.8041 39.2813 13.752 22.8809C13.7436 21.092 14.4323 20.756 16.0918 20.6015C18.6298 20.3781 20.0912 21.1944 21.0032 23.5947C22.001 26.2268 22.8962 28.6942 22.0866 31.6623C21.3392 34.4052 20.9428 37.3211 20.9428 40.1682C20.9428 41.9571 21.8884 43.7627 22.5418 45.518C23.8234 48.9412 25.1991 52.3207 26.946 55.7439C26.946 54.9276 27.1694 54.0239 26.9124 53.2933C25.7937 50.1371 24.7103 46.9457 23.2658 43.9357C22.0866 41.4851 22.0698 39.1537 22.7585 36.6593C23.3598 34.5009 24.2635 32.3677 24.418 30.1741C24.5642 28.0325 23.9712 25.8388 23.6185 23.6804C23.4892 22.8641 23.1364 22.0813 22.7921 20.971C26.7914 20.971 30.6698 20.971 34.8338 20.971C33.5001 28.108 31.3669 35.0838 33.8277 42.3081Z" fill="#14532D"/>
<path d="M40.054 11.7915C39.8726 13.6156 39.7096 15.2231 39.4863 17.4168C38.2903 15.3692 37.3279 13.7349 36.1924 11.7915C37.7579 11.7915 38.9269 11.7915 40.054 11.7915Z" fill="#4338CA"/>
<path d="M49.4889 17.6233C47.5287 17.6233 45.8339 17.6233 43.6318 17.6233C48.0964 15.2919 48.0964 15.2919 49.4889 17.6233Z" fill="#4338CA"/>
</svg>
