<svg width="60" height="64" viewBox="0 0 60 64" fill="none" xmlns="http://www.w3.org/2000/svg">
<path d="M29.4831 0.172232C29.4831 4.72922 29.4831 9.2879 29.4831 13.7676C32.6728 15.0492 32.6476 15.0408 34.2551 12.2374C35.8541 9.45082 37.5053 6.6995 39.148 3.93977C39.3378 3.62231 39.6116 3.35524 39.8451 3.07137C40.008 3.16543 40.1726 3.26118 40.3355 3.35524C39.3294 5.19618 38.3586 7.04383 37.3172 8.8579C36.4236 10.4234 35.3402 11.9015 34.5826 13.5274C34.3071 14.1288 34.7204 15.7295 34.8144 15.7295C36.9728 15.7295 37.2399 20.6392 40.2751 17.9736C43.2162 15.3936 46.0028 12.6422 48.865 9.96817C49.2866 9.57344 49.7502 9.22911 50.1987 8.85958C50.3532 9.0309 50.5077 9.20391 50.6723 9.37524C46.8981 12.9614 43.1222 16.5391 39.4336 20.0379C40.3271 22.0586 41.1183 23.839 41.9867 25.7992C47.1551 23.3234 52.2462 20.8811 57.3273 18.4472C57.4398 18.6538 57.5591 18.8604 57.6716 19.067C56.4169 19.7372 55.1957 20.4679 53.9141 21.0793C50.3969 22.764 46.8544 24.3816 43.3371 26.0495C41.377 26.9868 42.6149 28.6715 42.6149 29.9968C42.6149 30.3579 43.7503 31.0029 44.3953 31.0466C48.9355 31.3136 53.4841 31.4413 58.0243 31.6311C58.4023 31.6479 58.7819 31.7336 59.1934 32.2593C58.5047 32.303 57.8093 32.397 57.1291 32.3802C53.0021 32.2509 48.8734 32.0443 44.7464 32.0023C44.0157 31.9939 42.6569 32.6036 42.6569 32.9396C42.6401 34.238 41.3333 35.8639 43.3355 36.8516C47.8421 39.0704 52.3218 41.3145 56.8099 43.567C57.2147 43.7736 57.5927 44.0406 57.979 44.2808C57.9101 44.4438 57.8329 44.5983 57.764 44.7629C56.7579 44.3497 55.7265 43.997 54.754 43.525C51.057 41.7193 47.3667 39.8968 43.7033 38.0307C42.3696 37.3521 41.4593 37.3084 41.1401 39.0805C41.0545 39.5441 40.7706 39.9926 40.5035 40.3957C39.6788 41.6773 39.9274 42.6398 41.0461 43.698C43.7806 46.2948 46.3942 49.0125 49.043 51.695C49.5755 52.2375 50.024 52.8472 50.5128 53.4318C50.4002 53.5695 50.2978 53.6988 50.1852 53.8366C49.6175 53.3545 49.0162 52.9161 48.4904 52.392C45.7727 49.6743 43.0382 46.9666 40.3809 44.1968C39.4957 43.2764 38.8843 43.2512 37.9907 44.1968C35.1621 47.1716 35.1621 47.1296 36.993 51.3422C38.162 54.0331 39.2454 56.7592 40.3372 59.4854C40.5186 59.9406 40.5438 60.4663 40.6463 60.9551C40.4649 61.0072 40.2852 61.0676 40.0954 61.118C38.9431 58.3146 37.7992 55.5112 36.647 52.7078C36.1145 51.4178 35.5384 50.1362 35.0563 48.8294C34.5742 47.531 33.8184 47.1262 32.4763 47.5999C31.6331 47.8922 30.7143 47.9442 29.5604 48.1592C29.5604 53.1899 29.5604 58.2038 29.5604 63.2243C29.3202 63.268 29.0783 63.3184 28.8381 63.3621C28.6836 62.7691 28.3997 62.1846 28.3913 61.59C28.3476 57.935 28.3661 54.2716 28.3577 50.6183C28.3577 50.1446 28.2972 49.6726 28.2284 48.7438C24.9513 51.4951 21.943 54.023 18.933 56.5509C18.8036 56.4384 18.6659 56.3359 18.5366 56.2234C18.7952 55.8455 18.9918 55.3802 19.3277 55.0879C21.9161 52.8523 24.5818 50.7107 27.1097 48.4145C27.7463 47.8384 28.314 46.8239 28.3476 45.9891C28.477 42.3341 28.4333 38.6707 28.3913 35.0173C28.3661 32.9194 27.3852 32.4206 25.6131 33.4872C21.6137 35.8941 17.6413 38.3364 13.5916 40.6594C12.2159 41.4506 11.6045 42.4046 11.6566 44.0138C11.7506 46.7819 11.6818 49.5601 11.6818 52.3299C11.4147 52.3299 11.1577 52.3383 10.8906 52.3383C10.8906 49.1906 10.8906 46.0445 10.8906 42.4315C7.2625 44.521 4.10637 46.3435 0.941837 48.1676C0.829298 47.961 0.710039 47.7544 0.5975 47.5394C3.64109 45.6817 6.68637 43.8156 10.1348 41.7092C7.16004 39.6886 4.51957 37.8913 1.8791 36.094C1.97316 35.9311 2.06891 35.7665 2.16297 35.6036C2.5493 35.7581 2.9709 35.8706 3.31523 36.094C5.3527 37.4277 7.33977 38.8538 9.4293 40.1018C10.1264 40.515 11.3122 40.9181 11.8632 40.609C16.5159 37.987 21.0813 35.192 26.0347 32.2341C23.102 30.4284 20.4884 28.8025 17.8563 27.195C16.1363 26.1452 14.3474 25.208 12.6795 24.0826C11.4584 23.2579 10.5043 23.2579 9.28316 24.1347C6.97024 25.8026 4.54477 27.2992 2.14617 28.8462C1.83711 29.0444 1.4407 29.1216 1.08797 29.2594C0.985508 29.0964 0.889765 28.9318 0.787304 28.7689C3.70324 26.8255 6.6175 24.8737 9.96176 22.6381C6.57383 20.5233 3.52184 18.6135 0.476562 16.7054C0.605898 16.4904 0.725156 16.2838 0.854492 16.0688C4.00223 17.9181 7.13988 19.7759 10.8033 21.9326C10.8033 18.1583 10.8033 14.9417 10.8033 11.7335C11.0955 11.7335 11.3794 11.7335 11.6717 11.7335C11.6717 13.5476 11.6549 15.3616 11.6717 17.1774C11.7237 22.801 11.7322 22.7842 16.5478 25.5876C19.1883 27.1178 21.8019 28.7084 24.4239 30.2655C24.9059 30.5494 25.3964 30.8332 25.9037 31.0482C27.538 31.7453 28.3375 31.2884 28.3543 29.5348C28.4064 25.1744 28.4484 20.8072 28.3207 16.4551C28.2955 15.6808 27.5901 14.6747 26.9014 14.2279C24.1148 12.397 21.2089 10.7459 18.3535 9.01747C17.7337 8.64793 17.1491 8.23473 16.5394 7.84001C16.6604 7.6418 16.7796 7.45368 16.9005 7.25547C20.5555 9.40547 24.2105 11.5555 28.183 13.8852C28.6466 9.1636 28.0117 4.58981 28.5525 0.110083C28.8818 0.103364 29.1824 0.138638 29.4831 0.172232Z" fill="#14532D"/>
</svg>
