<svg width="86" height="86" viewBox="0 0 86 86" fill="none" xmlns="http://www.w3.org/2000/svg">
<path d="M32.0047 16.1484C35.0517 22.407 38.4094 28.5361 41.0515 34.9576C43.5391 40.9826 39.2862 48.5765 33.4761 49.5137C28.4152 50.3318 23.6802 46.7675 22.622 41.1892C22.071 38.3136 22.3129 35.49 23.6298 32.7538C26.015 27.7618 28.2439 22.6908 30.5417 17.6551C30.7651 17.173 31.0322 16.7162 31.2825 16.2526C31.5227 16.2089 31.7645 16.1837 32.0047 16.1484Z" fill="#4338CA"/>
<path d="M54.4909 27.1587C56.2294 30.4475 58.1325 33.6574 59.6644 37.0403C60.7663 39.4842 61.8329 42.1113 62.0915 44.7366C62.4611 48.4471 60.5765 51.3999 57.1415 53.0175C54.6102 54.205 52.1663 53.6289 50.1338 51.7443C47.3271 49.1273 46.1395 45.7612 47.4312 42.1885C49.2822 37.084 51.6842 32.186 53.8527 27.1923C54.0677 27.1755 54.2843 27.1671 54.4909 27.1587Z" fill="#4338CA"/>
<path d="M17.8011 60.4805C20.9253 60.4805 23.8009 60.4805 26.6849 60.4805C39.6404 60.4805 52.5958 60.4805 65.5596 60.4805C67.8927 60.4805 69.2264 62.6153 67.9868 64.5873C67.7029 65.0341 66.6615 65.1718 65.9644 65.1718C55.1875 65.2071 44.4174 65.197 33.6405 65.197C29.2078 65.197 24.765 65.197 20.3324 65.1886C17.5693 65.1886 17.5693 65.1886 17.6465 62.3651C17.6633 61.8242 17.7322 61.2733 17.8011 60.4805Z" fill="#14532D"/>
</svg>
