<svg width="73" height="72" viewBox="0 0 73 72" fill="none" xmlns="http://www.w3.org/2000/svg">
<rect x="0.599609" width="72" height="72" rx="8" fill="#F0FDF4"/>
<path d="M18.5996 60C16.0996 60 13.9746 59.125 12.2246 57.375C10.4746 55.625 9.59961 53.5 9.59961 51H6.59961C5.74961 51 5.03761 50.712 4.46361 50.136C3.88961 49.56 3.60161 48.848 3.59961 48V18C3.59961 16.35 4.18761 14.938 5.36361 13.764C6.53961 12.59 7.95161 12.002 9.59961 12H45.5996C47.2496 12 48.6626 12.588 49.8386 13.764C51.0146 14.94 51.6016 16.352 51.5996 18V24H57.5996C58.5496 24 59.4496 24.213 60.2996 24.639C61.1496 25.065 61.8496 25.652 62.3996 26.4L68.9996 35.175C69.1996 35.425 69.3496 35.7 69.4496 36C69.5496 36.3 69.5996 36.625 69.5996 36.975V48C69.5996 48.85 69.3116 49.563 68.7356 50.139C68.1596 50.715 67.4476 51.002 66.5996 51H63.5996C63.5996 53.5 62.7246 55.625 60.9746 57.375C59.2246 59.125 57.0996 60 54.5996 60C52.0996 60 49.9746 59.125 48.2246 57.375C46.4746 55.625 45.5996 53.5 45.5996 51H27.5996C27.5996 53.5 26.7246 55.625 24.9746 57.375C23.2246 59.125 21.0996 60 18.5996 60ZM18.5996 54C19.4496 54 20.1626 53.712 20.7386 53.136C21.3146 52.56 21.6016 51.848 21.5996 51C21.5976 50.152 21.3096 49.44 20.7356 48.864C20.1616 48.288 19.4496 48 18.5996 48C17.7496 48 17.0376 48.288 16.4636 48.864C15.8896 49.44 15.6016 50.152 15.5996 51C15.5976 51.848 15.8856 52.561 16.4636 53.139C17.0416 53.717 17.7536 54.004 18.5996 54ZM9.59961 45H11.9996C12.8496 44.1 13.8246 43.375 14.9246 42.825C16.0246 42.275 17.2496 42 18.5996 42C19.9496 42 21.1746 42.275 22.2746 42.825C23.3746 43.375 24.3496 44.1 25.1996 45H45.5996V18H9.59961V45ZM54.5996 54C55.4496 54 56.1626 53.712 56.7386 53.136C57.3146 52.56 57.6016 51.848 57.5996 51C57.5976 50.152 57.3096 49.44 56.7356 48.864C56.1616 48.288 55.4496 48 54.5996 48C53.7496 48 53.0376 48.288 52.4636 48.864C51.8896 49.44 51.6016 50.152 51.5996 51C51.5976 51.848 51.8856 52.561 52.4636 53.139C53.0416 53.717 53.7536 54.004 54.5996 54ZM51.5996 39H64.3496L57.5996 30H51.5996V39Z" fill="#15803D"/>
</svg>
