<svg width="73" height="72" viewBox="0 0 73 72" fill="none" xmlns="http://www.w3.org/2000/svg">
<rect x="0.400391" width="72" height="72" rx="8" fill="#F0FDF4"/>
<path d="M36.4004 60C33.6004 60 30.9634 59.563 28.4894 58.689C26.0154 57.815 23.7524 56.577 21.7004 54.975L17.5004 59.1C16.9504 59.65 16.2504 59.925 15.4004 59.925C14.5504 59.925 13.8504 59.65 13.3004 59.1C12.7504 58.55 12.4754 57.85 12.4754 57C12.4754 56.15 12.7504 55.45 13.3004 54.9L17.4254 50.775C15.8254 48.725 14.5884 46.45 13.7144 43.95C12.8404 41.45 12.4024 38.8 12.4004 36C12.4004 29.3 14.7254 23.625 19.3754 18.975C24.0254 14.325 29.7004 12 36.4004 12H54.4004C56.0504 12 57.4634 12.587 58.6394 13.761C59.8154 14.935 60.4024 16.348 60.4004 18V36C60.4004 42.7 58.0754 48.375 53.4254 53.025C48.7754 57.675 43.1004 60 36.4004 60ZM36.4004 54C41.4004 54 45.6504 52.25 49.1504 48.75C52.6504 45.25 54.4004 41 54.4004 36V18H36.4004C31.4004 18 27.1504 19.75 23.6504 23.25C20.1504 26.75 18.4004 31 18.4004 36C18.4004 37.95 18.7004 39.813 19.3004 41.589C19.9004 43.365 20.7254 44.977 21.7754 46.425L37.3004 30.9C37.8504 30.35 38.5504 30.075 39.4004 30.075C40.2504 30.075 40.9504 30.35 41.5004 30.9C42.1004 31.5 42.4004 32.213 42.4004 33.039C42.4004 33.865 42.1004 34.577 41.5004 35.175L25.9754 50.7C27.4254 51.75 29.0384 52.563 30.8144 53.139C32.5904 53.715 34.4524 54.002 36.4004 54Z" fill="#15803D"/>
</svg>
