<svg width="72" height="72" viewBox="0 0 72 72" fill="none" xmlns="http://www.w3.org/2000/svg">
<rect width="72" height="72" rx="8" fill="#F0FDF4"/>
<path d="M41.85 54.525L56.7 39.675C57.25 39.125 57.95 38.85 58.8 38.85C59.65 38.85 60.35 39.125 60.9 39.675C61.45 40.225 61.725 40.925 61.725 41.775C61.725 42.625 61.45 43.325 60.9 43.875L43.95 60.825C43.35 61.425 42.65 61.725 41.85 61.725C41.05 61.725 40.35 61.425 39.75 60.825L31.2 52.275C30.65 51.725 30.375 51.025 30.375 50.175C30.375 49.325 30.65 48.625 31.2 48.075C31.75 47.525 32.45 47.25 33.3 47.25C34.15 47.25 34.85 47.525 35.4 48.075L41.85 54.525ZM19.5 41.925H15C14.15 41.925 13.438 41.638 12.864 41.064C12.29 40.49 12.002 39.777 12 38.925C11.998 38.073 12.286 37.361 12.864 36.789C13.442 36.217 14.154 35.929 15 35.925H27V29.925H15C14.15 29.925 13.438 29.638 12.864 29.064C12.29 28.49 12.002 27.777 12 26.925V14.925C12 14.075 12.288 13.363 12.864 12.789C13.44 12.215 14.152 11.927 15 11.925H19.5C19.5 11.075 19.788 10.363 20.364 9.789C20.94 9.215 21.652 8.927 22.5 8.925C23.348 8.923 24.061 9.211 24.639 9.789C25.217 10.367 25.504 11.079 25.5 11.925H30C30.85 11.925 31.563 12.213 32.139 12.789C32.715 13.365 33.002 14.077 33 14.925C32.998 15.773 32.71 16.486 32.136 17.064C31.562 17.642 30.85 17.929 30 17.925H18V23.925H30C30.85 23.925 31.563 24.213 32.139 24.789C32.715 25.365 33.002 26.077 33 26.925V38.925C33 39.775 32.712 40.488 32.136 41.064C31.56 41.64 30.848 41.927 30 41.925H25.5C25.5 42.775 25.212 43.488 24.636 44.064C24.06 44.64 23.348 44.927 22.5 44.925C21.652 44.923 20.94 44.636 20.364 44.064C19.788 43.492 19.5 42.779 19.5 41.925Z" fill="#15803D"/>
</svg>
