<svg width="73" height="72" viewBox="0 0 73 72" fill="none" xmlns="http://www.w3.org/2000/svg">
<rect x="0.200195" width="72" height="72" rx="8" fill="#F0FDF4"/>
<path d="M40.7002 60H21.2002C19.5502 60 18.1382 59.413 16.9642 58.239C15.7902 57.065 15.2022 55.652 15.2002 54V34.5C15.2002 27.4 17.6752 21.375 22.6252 16.425C27.5752 11.475 33.6002 9 40.7002 9C47.8002 9 53.8252 11.475 58.7752 16.425C63.7252 21.375 66.2002 27.4 66.2002 34.5C66.2002 41.6 63.7252 47.625 58.7752 52.575C53.8252 57.525 47.8002 60 40.7002 60ZM40.7002 54C46.1002 54 50.7002 52.1 54.5002 48.3C58.3002 44.5 60.2002 39.9 60.2002 34.5C60.2002 29.1 58.3002 24.5 54.5002 20.7C50.7002 16.9 46.1002 15 40.7002 15C35.3002 15 30.7002 16.9 26.9002 20.7C23.1002 24.5 21.2002 29.1 21.2002 34.5V54H40.7002ZM40.7002 45C43.6002 45 46.0752 43.975 48.1252 41.925C50.1752 39.875 51.2002 37.4 51.2002 34.5C51.2002 31.6 50.1752 29.125 48.1252 27.075C46.0752 25.025 43.6002 24 40.7002 24C37.8002 24 35.3252 25.025 33.2752 27.075C31.2252 29.125 30.2002 31.6 30.2002 34.5C30.2002 37.4 31.2252 39.875 33.2752 41.925C35.3252 43.975 37.8002 45 40.7002 45ZM40.7002 39C39.4502 39 38.3872 38.563 37.5112 37.689C36.6352 36.815 36.1982 35.752 36.2002 34.5C36.2022 33.248 36.6402 32.186 37.5142 31.314C38.3882 30.442 39.4502 30.004 40.7002 30C41.9502 29.996 43.0132 30.434 43.8892 31.314C44.7652 32.194 45.2022 33.256 45.2002 34.5C45.1982 35.744 44.7612 36.807 43.8892 37.689C43.0172 38.571 41.9542 39.008 40.7002 39ZM9.2002 60C8.3502 60 7.6382 59.712 7.0642 59.136C6.4902 58.56 6.2022 57.848 6.2002 57V48C6.2002 47.15 6.4882 46.438 7.0642 45.864C7.6402 45.29 8.3522 45.002 9.2002 45C10.0482 44.998 10.7612 45.286 11.3392 45.864C11.9172 46.442 12.2042 47.154 12.2002 48V57C12.2002 57.85 11.9122 58.563 11.3362 59.139C10.7602 59.715 10.0482 60.002 9.2002 60Z" fill="#15803D"/>
</svg>
