<svg width="73" height="72" viewBox="0 0 73 72" fill="none" xmlns="http://www.w3.org/2000/svg">
<rect x="0.799805" width="72" height="72" rx="8" fill="#F0FDF4"/>
<path d="M36.7998 59.7C41.6498 58.2 45.6998 55.238 48.9498 50.814C52.1998 46.39 54.0998 41.452 54.6498 36H36.7998V12.375L18.7998 19.125V34.65C18.7998 35 18.8498 35.45 18.9498 36H36.7998V59.7ZM36.7998 65.7C36.4498 65.7 36.1248 65.675 35.8248 65.625C35.5248 65.575 35.2248 65.5 34.9248 65.4C28.1748 63.15 22.7998 58.988 18.7998 52.914C14.7998 46.84 12.7998 40.302 12.7998 33.3V19.125C12.7998 17.875 13.1628 16.75 13.8888 15.75C14.6148 14.75 15.5518 14.025 16.6998 13.575L34.6998 6.82501C35.3998 6.57501 36.0998 6.45001 36.7998 6.45001C37.4998 6.45001 38.1998 6.57501 38.8998 6.82501L56.8998 13.575C58.0498 14.025 58.9878 14.75 59.7138 15.75C60.4398 16.75 60.8018 17.875 60.7998 19.125V33.3C60.7998 40.3 58.7998 46.838 54.7998 52.914C50.7998 58.99 45.4248 63.152 38.6748 65.4C38.3748 65.5 38.0748 65.575 37.7748 65.625C37.4748 65.675 37.1498 65.7 36.7998 65.7Z" fill="#15803D"/>
</svg>
