<svg width="21" height="20" viewBox="0 0 21 20" fill="none" xmlns="http://www.w3.org/2000/svg">
<path d="M10.666 0.0400391C5.16602 0.0400391 0.666016 4.53004 0.666016 10.06C0.666016 15.06 4.32601 19.21 9.10602 19.96V12.96H6.56602V10.06H9.10602V7.85004C9.10602 5.34004 10.596 3.96004 12.886 3.96004C13.976 3.96004 15.116 4.15004 15.116 4.15004V6.62004H13.856C12.616 6.62004 12.226 7.39004 12.226 8.18004V10.06H15.006L14.556 12.96H12.226V19.96C14.5825 19.5879 16.7282 18.3856 18.2759 16.5701C19.8237 14.7546 20.6714 12.4457 20.666 10.06C20.666 4.53004 16.166 0.0400391 10.666 0.0400391Z" fill="white"/>
</svg>
