<svg width="21" height="20" viewBox="0 0 21 20" fill="none" xmlns="http://www.w3.org/2000/svg">
<path d="M6.46602 0H14.866C18.066 0 20.666 2.6 20.666 5.8V14.2C20.666 15.7383 20.0549 17.2135 18.9672 18.3012C17.8795 19.3889 16.4043 20 14.866 20H6.46602C3.26602 20 0.666016 17.4 0.666016 14.2V5.8C0.666016 4.26174 1.27709 2.78649 2.3648 1.69878C3.45251 0.61107 4.92776 0 6.46602 0ZM6.26602 2C5.31124 2 4.39556 2.37928 3.72043 3.05442C3.0453 3.72955 2.66602 4.64522 2.66602 5.6V14.4C2.66602 16.39 4.27602 18 6.26602 18H15.066C16.0208 18 16.9365 17.6207 17.6116 16.9456C18.2867 16.2705 18.666 15.3548 18.666 14.4V5.6C18.666 3.61 17.056 2 15.066 2H6.26602ZM15.916 3.5C16.2475 3.5 16.5655 3.6317 16.7999 3.86612C17.0343 4.10054 17.166 4.41848 17.166 4.75C17.166 5.08152 17.0343 5.39946 16.7999 5.63388C16.5655 5.8683 16.2475 6 15.916 6C15.5845 6 15.2666 5.8683 15.0321 5.63388C14.7977 5.39946 14.666 5.08152 14.666 4.75C14.666 4.41848 14.7977 4.10054 15.0321 3.86612C15.2666 3.6317 15.5845 3.5 15.916 3.5ZM10.666 5C11.9921 5 13.2639 5.52678 14.2015 6.46447C15.1392 7.40215 15.666 8.67392 15.666 10C15.666 11.3261 15.1392 12.5979 14.2015 13.5355C13.2639 14.4732 11.9921 15 10.666 15C9.33993 15 8.06816 14.4732 7.13048 13.5355C6.1928 12.5979 5.66602 11.3261 5.66602 10C5.66602 8.67392 6.1928 7.40215 7.13048 6.46447C8.06816 5.52678 9.33993 5 10.666 5ZM10.666 7C9.87037 7 9.1073 7.31607 8.54469 7.87868C7.98209 8.44129 7.66602 9.20435 7.66602 10C7.66602 10.7956 7.98209 11.5587 8.54469 12.1213C9.1073 12.6839 9.87037 13 10.666 13C11.4617 13 12.2247 12.6839 12.7873 12.1213C13.3499 11.5587 13.666 10.7956 13.666 10C13.666 9.20435 13.3499 8.44129 12.7873 7.87868C12.2247 7.31607 11.4617 7 10.666 7Z" fill="white"/>
</svg>
